<svg version="1.2" baseProfile="tiny-ps" xmlns="http://www.w3.org/2000/svg" viewBox="0 0 198 46" width="198" height="46">
	<title>IGD </title>
	<style>
		tspan { white-space:pre }
		.shp0 { fill: #ff595a } 
		.shp1 { fill: #efe0ca } 
	</style>
	<path id="IGET DELIVERY " class="shp0" d="M38.42 13.2L38.42 30L35.06 30L35.06 13.2L38.42 13.2ZM54.91 21.67L54.91 28.3C54.13 28.96 53.26 29.48 52.3 29.84C51.34 30.19 50.34 30.36 49.3 30.36C48.5 30.36 47.73 30.26 46.99 30.06C46.25 29.85 45.57 29.55 44.93 29.18C44.29 28.8 43.7 28.34 43.17 27.82C42.64 27.29 42.18 26.7 41.81 26.06C41.43 25.41 41.14 24.72 40.93 23.98C40.73 23.23 40.63 22.46 40.63 21.67C40.63 20.87 40.73 20.11 40.93 19.37C41.14 18.64 41.43 17.95 41.81 17.31C42.18 16.66 42.64 16.07 43.17 15.55C43.7 15.02 44.29 14.57 44.93 14.19C45.57 13.82 46.25 13.53 46.99 13.32C47.73 13.11 48.5 13.01 49.3 13.01C50.34 13.01 51.34 13.19 52.3 13.55C53.26 13.9 54.13 14.41 54.91 15.07L53.15 18C52.64 17.48 52.06 17.08 51.39 16.79C50.73 16.5 50.03 16.35 49.3 16.35C48.56 16.35 47.87 16.49 47.22 16.77C46.58 17.05 46.02 17.43 45.54 17.92C45.05 18.39 44.67 18.96 44.39 19.61C44.11 20.25 43.96 20.93 43.96 21.67C43.96 22.41 44.11 23.11 44.39 23.75C44.67 24.4 45.05 24.97 45.54 25.45C46.02 25.94 46.58 26.32 47.22 26.6C47.87 26.88 48.56 27.02 49.3 27.02C49.72 27.02 50.13 26.97 50.53 26.87C50.93 26.77 51.3 26.63 51.66 26.45L51.66 21.67L54.91 21.67ZM69.02 26.64L69.02 30L57.5 30L57.5 13.2L69.02 13.2L69.02 16.56L60.86 16.56L60.86 19.92L66.38 19.92L66.38 23.29L60.86 23.29L60.86 26.64L69.02 26.64ZM78.43 16.56L78.43 30L75.08 30L75.08 16.56L70.03 16.56L70.03 13.2L83.47 13.2L83.47 16.56L78.43 16.56ZM105.43 21.6C105.43 22.37 105.33 23.12 105.12 23.84C104.93 24.55 104.65 25.21 104.28 25.84C103.91 26.46 103.48 27.02 102.97 27.54C102.46 28.05 101.89 28.48 101.27 28.85C100.64 29.22 99.97 29.5 99.25 29.71C98.54 29.9 97.8 30 97.03 30L91.96 30L91.96 13.2L97.03 13.2C97.8 13.2 98.54 13.3 99.25 13.5C99.97 13.7 100.64 13.98 101.27 14.34C101.89 14.71 102.46 15.15 102.97 15.67C103.48 16.18 103.91 16.74 104.28 17.37C104.65 17.98 104.93 18.65 105.12 19.37C105.33 20.08 105.43 20.82 105.43 21.6ZM102.07 21.6C102.07 20.9 101.93 20.25 101.67 19.64C101.41 19.03 101.05 18.5 100.59 18.05C100.14 17.59 99.6 17.22 98.98 16.96C98.37 16.69 97.72 16.56 97.03 16.56L95.35 16.56L95.35 26.64L97.03 26.64C97.72 26.64 98.37 26.51 98.98 26.25C99.6 25.98 100.14 25.62 100.59 25.17C101.05 24.71 101.41 24.18 101.67 23.57C101.93 22.95 102.07 22.29 102.07 21.6ZM119.18 26.64L119.18 30L107.66 30L107.66 13.2L119.18 13.2L119.18 16.56L111.02 16.56L111.02 19.92L116.54 19.92L116.54 23.29L111.02 23.29L111.02 26.64L119.18 26.64ZM133.3 26.64L133.3 30L121.53 30L121.53 13.2L124.89 13.2L124.89 26.64L133.3 26.64ZM138.41 13.2L138.41 30L135.04 30L135.04 13.2L138.41 13.2ZM150.52 13.2L154.37 13.2L148.85 30L145.48 30L139.99 13.2L143.81 13.2L147.16 24.41L150.52 13.2ZM167.49 26.64L167.49 30L155.97 30L155.97 13.2L167.49 13.2L167.49 16.56L159.34 16.56L159.34 19.92L164.86 19.92L164.86 23.29L159.34 23.29L159.34 26.64L167.49 26.64ZM173.21 26.64L173.21 30L169.85 30L169.85 13.2L176.57 13.2C177.19 13.2 177.79 13.28 178.36 13.44C178.93 13.6 179.46 13.82 179.95 14.12C180.45 14.41 180.9 14.76 181.31 15.18C181.72 15.58 182.07 16.04 182.36 16.54C182.66 17.04 182.89 17.57 183.04 18.14C183.21 18.71 183.29 19.3 183.29 19.92C183.29 20.5 183.21 21.06 183.07 21.61C182.93 22.16 182.72 22.68 182.45 23.17C182.18 23.66 181.85 24.11 181.46 24.53C181.07 24.94 180.63 25.3 180.15 25.61L182.01 30L178.44 30L176.97 26.61L173.21 26.64ZM176.57 16.56L173.21 16.56L173.21 23.29L176.57 23.29C177.04 23.29 177.47 23.2 177.87 23.03C178.28 22.85 178.64 22.61 178.94 22.3C179.25 22 179.48 21.64 179.66 21.23C179.84 20.82 179.93 20.38 179.93 19.92C179.93 19.46 179.84 19.03 179.66 18.62C179.48 18.21 179.25 17.85 178.94 17.54C178.64 17.24 178.28 17 177.87 16.83C177.47 16.65 177.04 16.56 176.57 16.56ZM193.05 24.74L193.05 30L189.7 30L189.7 24.74C188.96 24.55 188.27 24.25 187.65 23.84C187.03 23.42 186.5 22.93 186.05 22.36C185.61 21.78 185.26 21.14 185.01 20.45C184.77 19.75 184.65 19.01 184.65 18.23L184.65 13.2L188.01 13.2L188.01 18.23C188.01 18.7 188.1 19.13 188.27 19.55C188.45 19.95 188.69 20.31 189 20.61C189.3 20.92 189.66 21.16 190.06 21.34C190.48 21.51 190.91 21.6 191.37 21.6C191.84 21.6 192.27 21.51 192.68 21.34C193.09 21.16 193.45 20.92 193.75 20.61C194.06 20.31 194.3 19.95 194.47 19.55C194.65 19.13 194.74 18.7 194.74 18.23L194.74 13.2L198.09 13.2L198.09 18.23C198.09 19.01 197.96 19.75 197.71 20.45C197.47 21.14 197.13 21.78 196.68 22.36C196.24 22.93 195.71 23.42 195.09 23.84C194.47 24.25 193.79 24.55 193.05 24.74Z" />
	<path id="IGD " fill-rule="evenodd" class="shp1" d="M21.51 4.64L0.5 4.64L0.5 0.44L21.51 0.44L21.51 4.64ZM10.91 25.25L2.62 25.25C1.79 24.28 1.15 23.19 0.7 21.99C0.27 20.78 0.05 19.53 0.05 18.24C0.05 17.24 0.17 16.28 0.43 15.35C0.69 14.43 1.06 13.57 1.53 12.77C2 11.97 2.57 11.24 3.22 10.57C3.89 9.91 4.62 9.34 5.42 8.88C6.23 8.41 7.1 8.04 8.03 7.78C8.96 7.52 9.92 7.4 10.91 7.4C11.91 7.4 12.87 7.52 13.79 7.78C14.7 8.04 15.56 8.41 16.36 8.88C17.17 9.34 17.91 9.91 18.56 10.57C19.23 11.24 19.79 11.97 20.26 12.77C20.73 13.57 21.09 14.43 21.34 15.35C21.61 16.28 21.74 17.24 21.74 18.24C21.74 19.53 21.52 20.78 21.07 21.99C20.63 23.19 19.99 24.28 19.16 25.25L15.5 23.06C16.14 22.42 16.65 21.69 17.01 20.86C17.38 20.03 17.57 19.15 17.57 18.24C17.57 17.32 17.39 16.45 17.04 15.64C16.69 14.84 16.21 14.14 15.6 13.53C15.01 12.93 14.3 12.45 13.49 12.1C12.69 11.75 11.83 11.57 10.91 11.57C9.99 11.57 9.12 11.75 8.31 12.1C7.5 12.45 6.79 12.93 6.18 13.53C5.58 14.14 5.1 14.84 4.75 15.64C4.4 16.45 4.22 17.32 4.22 18.24C4.22 18.76 4.28 19.28 4.41 19.77C4.54 20.27 4.71 20.75 4.94 21.19L10.91 21.19L10.91 25.25ZM11 45.32C10.04 45.32 9.1 45.19 8.2 44.94C7.32 44.7 6.48 44.34 5.7 43.89C4.93 43.43 4.22 42.88 3.58 42.24C2.94 41.61 2.39 40.9 1.94 40.12C1.48 39.34 1.12 38.5 0.87 37.6C0.62 36.71 0.5 35.78 0.5 34.82L0.5 28.49L21.51 28.49L21.51 34.82C21.51 35.78 21.38 36.71 21.12 37.6C20.88 38.5 20.53 39.34 20.07 40.12C19.61 40.9 19.06 41.61 18.41 42.24C17.78 42.88 17.07 43.43 16.29 43.89C15.52 44.34 14.68 44.7 13.79 44.94C12.9 45.19 11.97 45.32 11 45.32ZM11 41.12C11.87 41.12 12.69 40.95 13.45 40.62C14.21 40.3 14.87 39.85 15.44 39.27C16.02 38.7 16.47 38.04 16.8 37.26C17.14 36.5 17.3 35.69 17.3 34.82L17.3 32.72L4.7 32.72L4.7 34.82C4.7 35.69 4.87 36.5 5.19 37.26C5.52 38.04 5.97 38.7 6.54 39.27C7.11 39.85 7.78 40.3 8.54 40.62C9.31 40.95 10.13 41.12 11 41.12Z" />
</svg>