<svg version="1.2" baseProfile="tiny-ps" xmlns="http://www.w3.org/2000/svg" viewBox="0 0 215 53" width="215" height="53">
	<title>ECD </title>
	<style>
		tspan { white-space:pre }
		.shp0 { fill: #ff595a }
		.shp1 { fill: #efe0ca }
	</style>
	<path id="E-CIG DELIVERY  " class="shp0" d="M49.08 29.64L49.08 33L37.56 33L37.56 16.2L49.08 16.2L49.08 19.56L40.92 19.56L40.92 22.92L46.44 22.92L46.44 26.29L40.92 26.29L40.92 29.64L49.08 29.64ZM50.84 22.92L60.68 22.92L60.68 26.11L50.84 26.11L50.84 22.92ZM75.3 28.35L77.09 31.28C76.3 31.95 75.43 32.46 74.46 32.82C73.49 33.18 72.49 33.36 71.45 33.36C70.65 33.36 69.88 33.26 69.14 33.06C68.41 32.85 67.71 32.55 67.07 32.18C66.43 31.8 65.84 31.34 65.31 30.81C64.78 30.28 64.32 29.69 63.94 29.05C63.56 28.4 63.27 27.71 63.06 26.98C62.86 26.23 62.75 25.46 62.75 24.67C62.75 23.87 62.86 23.1 63.06 22.36C63.27 21.62 63.56 20.93 63.94 20.29C64.32 19.64 64.78 19.05 65.31 18.52C65.84 17.98 66.43 17.53 67.07 17.16C67.71 16.77 68.41 16.48 69.14 16.28C69.88 16.07 70.65 15.96 71.45 15.96C72.49 15.96 73.49 16.14 74.46 16.5C75.43 16.85 76.3 17.37 77.09 18.05L75.3 20.98C74.81 20.45 74.23 20.04 73.56 19.76C72.89 19.47 72.18 19.32 71.45 19.32C70.71 19.32 70.01 19.46 69.36 19.75C68.71 20.03 68.15 20.41 67.66 20.89C67.18 21.37 66.8 21.94 66.52 22.59C66.23 23.24 66.09 23.93 66.09 24.67C66.09 25.4 66.23 26.09 66.52 26.74C66.8 27.38 67.18 27.95 67.66 28.43C68.15 28.91 68.71 29.3 69.36 29.58C70.01 29.86 70.71 30 71.45 30C72.18 30 72.89 29.86 73.56 29.58C74.23 29.29 74.81 28.88 75.3 28.35ZM82.39 16.2L82.39 33L79.03 33L79.03 16.2L82.39 16.2ZM98.88 24.67L98.88 31.3C98.1 31.96 97.23 32.48 96.27 32.84C95.31 33.19 94.31 33.36 93.27 33.36C92.47 33.36 91.7 33.26 90.96 33.06C90.23 32.85 89.54 32.55 88.9 32.18C88.26 31.8 87.67 31.34 87.14 30.82C86.61 30.29 86.16 29.7 85.78 29.06C85.41 28.41 85.11 27.72 84.9 26.98C84.7 26.23 84.6 25.46 84.6 24.67C84.6 23.87 84.7 23.11 84.9 22.37C85.11 21.64 85.41 20.95 85.78 20.31C86.16 19.66 86.61 19.07 87.14 18.55C87.67 18.02 88.26 17.57 88.9 17.19C89.54 16.82 90.23 16.53 90.96 16.32C91.7 16.11 92.47 16.01 93.27 16.01C94.31 16.01 95.31 16.19 96.27 16.55C97.23 16.9 98.1 17.41 98.88 18.07L97.12 21C96.62 20.48 96.03 20.08 95.37 19.79C94.7 19.5 94 19.35 93.27 19.35C92.54 19.35 91.84 19.49 91.2 19.77C90.55 20.05 89.99 20.43 89.51 20.92C89.02 21.39 88.64 21.96 88.36 22.61C88.08 23.25 87.94 23.93 87.94 24.67C87.94 25.41 88.08 26.11 88.36 26.75C88.64 27.4 89.02 27.97 89.51 28.45C89.99 28.94 90.55 29.32 91.2 29.6C91.84 29.88 92.54 30.02 93.27 30.02C93.69 30.02 94.1 29.97 94.5 29.87C94.9 29.77 95.28 29.63 95.64 29.45L95.64 24.67L98.88 24.67ZM121.65 24.6C121.65 25.37 121.55 26.12 121.35 26.84C121.15 27.55 120.87 28.21 120.5 28.84C120.14 29.46 119.7 30.02 119.19 30.54C118.68 31.05 118.12 31.48 117.49 31.85C116.87 32.22 116.2 32.5 115.48 32.71C114.77 32.9 114.02 33 113.25 33L108.19 33L108.19 16.2L113.25 16.2C114.02 16.2 114.77 16.3 115.48 16.5C116.2 16.7 116.87 16.98 117.49 17.34C118.12 17.71 118.68 18.15 119.19 18.67C119.7 19.18 120.14 19.74 120.5 20.37C120.87 20.98 121.15 21.65 121.35 22.37C121.55 23.08 121.65 23.82 121.65 24.6ZM118.29 24.6C118.29 23.9 118.16 23.25 117.89 22.64C117.63 22.03 117.27 21.5 116.81 21.05C116.36 20.59 115.82 20.22 115.21 19.96C114.6 19.69 113.95 19.56 113.25 19.56L111.57 19.56L111.57 29.64L113.25 29.64C113.95 29.64 114.6 29.51 115.21 29.25C115.82 28.98 116.36 28.62 116.81 28.17C117.27 27.71 117.63 27.18 117.89 26.57C118.16 25.95 118.29 25.29 118.29 24.6ZM135.4 29.64L135.4 33L123.88 33L123.88 16.2L135.4 16.2L135.4 19.56L127.24 19.56L127.24 22.92L132.76 22.92L132.76 26.29L127.24 26.29L127.24 29.64L135.4 29.64ZM149.52 29.64L149.52 33L137.75 33L137.75 16.2L141.12 16.2L141.12 29.64L149.52 29.64ZM154.63 16.2L154.63 33L151.27 33L151.27 16.2L154.63 16.2ZM166.75 16.2L170.59 16.2L165.07 33L161.71 33L156.21 16.2L160.03 16.2L163.38 27.41L166.75 16.2ZM183.71 29.64L183.71 33L172.2 33L172.2 16.2L183.71 16.2L183.71 19.56L175.56 19.56L175.56 22.92L181.08 22.92L181.08 26.29L175.56 26.29L175.56 29.64L183.71 29.64ZM189.43 29.64L189.43 33L186.07 33L186.07 16.2L192.8 16.2C193.41 16.2 194.01 16.28 194.58 16.44C195.15 16.6 195.68 16.82 196.17 17.12C196.67 17.41 197.12 17.76 197.53 18.18C197.95 18.58 198.3 19.04 198.59 19.54C198.88 20.04 199.11 20.57 199.27 21.14C199.43 21.71 199.51 22.3 199.51 22.92C199.51 23.5 199.44 24.06 199.29 24.61C199.15 25.16 198.94 25.68 198.67 26.17C198.4 26.66 198.07 27.11 197.68 27.53C197.29 27.94 196.86 28.3 196.37 28.61L198.23 33L194.66 33L193.2 29.61L189.43 29.64ZM192.8 19.56L189.43 19.56L189.43 26.29L192.8 26.29C193.26 26.29 193.69 26.2 194.1 26.03C194.5 25.85 194.86 25.61 195.16 25.3C195.47 25 195.71 24.64 195.88 24.23C196.06 23.82 196.15 23.38 196.15 22.92C196.15 22.46 196.06 22.03 195.88 21.62C195.71 21.21 195.47 20.85 195.16 20.54C194.86 20.24 194.5 20 194.1 19.83C193.69 19.65 193.26 19.56 192.8 19.56ZM209.27 27.74L209.27 33L205.92 33L205.92 27.74C205.18 27.55 204.5 27.25 203.87 26.84C203.25 26.42 202.72 25.93 202.28 25.36C201.83 24.78 201.48 24.14 201.23 23.45C200.99 22.75 200.87 22.01 200.87 21.23L200.87 16.2L204.23 16.2L204.23 21.23C204.23 21.7 204.32 22.13 204.49 22.55C204.67 22.95 204.91 23.31 205.22 23.61C205.52 23.92 205.88 24.16 206.29 24.34C206.7 24.51 207.14 24.6 207.6 24.6C208.06 24.6 208.49 24.51 208.9 24.34C209.31 24.16 209.67 23.92 209.98 23.61C210.28 23.31 210.52 22.95 210.69 22.55C210.87 22.13 210.96 21.7 210.96 21.23L210.96 16.2L214.31 16.2L214.31 21.23C214.31 22.01 214.19 22.75 213.94 23.45C213.7 24.14 213.35 24.78 212.91 25.36C212.46 25.93 211.93 26.42 211.31 26.84C210.7 27.25 210.02 27.55 209.27 27.74Z" />
	<path id="ECD " fill-rule="evenodd" class="shp1" d="M5.19 14.33L0.98 14.33L0.98 -0.07L21.99 -0.07L21.99 14.33L17.79 14.33L17.79 4.14L13.58 4.14L13.58 11.04L9.38 11.04L9.38 4.14L5.19 4.14L5.19 14.33ZM6.8 31.31L3.14 33.54C2.3 32.56 1.65 31.47 1.2 30.25C0.75 29.04 0.53 27.79 0.53 26.49C0.53 25.49 0.66 24.53 0.91 23.6C1.17 22.69 1.54 21.82 2.01 21.01C2.49 20.21 3.06 19.48 3.72 18.81C4.39 18.15 5.12 17.58 5.92 17.1C6.73 16.63 7.6 16.27 8.51 16C9.44 15.75 10.4 15.62 11.4 15.62C12.39 15.62 13.36 15.75 14.28 16C15.21 16.27 16.08 16.63 16.88 17.1C17.69 17.58 18.43 18.15 19.09 18.81C19.75 19.48 20.32 20.21 20.79 21.01C21.27 21.82 21.63 22.69 21.89 23.6C22.15 24.53 22.28 25.49 22.28 26.49C22.28 27.79 22.06 29.04 21.61 30.25C21.17 31.47 20.52 32.56 19.68 33.54L16.01 31.31C16.68 30.69 17.19 29.97 17.54 29.13C17.9 28.29 18.08 27.41 18.08 26.49C18.08 25.56 17.9 24.69 17.55 23.88C17.2 23.07 16.72 22.36 16.12 21.76C15.52 21.15 14.81 20.67 13.99 20.32C13.18 19.97 12.32 19.8 11.4 19.8C10.48 19.8 9.62 19.97 8.81 20.32C8.01 20.67 7.3 21.15 6.7 21.76C6.09 22.36 5.61 23.07 5.26 23.88C4.91 24.69 4.73 25.56 4.73 26.49C4.73 27.41 4.91 28.29 5.26 29.13C5.62 29.97 6.14 30.69 6.8 31.31ZM11.49 52.8C10.52 52.8 9.59 52.67 8.69 52.42C7.8 52.17 6.97 51.82 6.18 51.36C5.41 50.9 4.7 50.36 4.06 49.72C3.43 49.09 2.88 48.38 2.42 47.6C1.96 46.82 1.6 45.98 1.35 45.08C1.11 44.19 0.98 43.26 0.98 42.3L0.98 35.97L21.99 35.97L21.99 42.3C21.99 43.26 21.86 44.19 21.61 45.08C21.36 45.98 21.01 46.82 20.55 47.6C20.1 48.38 19.54 49.09 18.9 49.72C18.26 50.36 17.56 50.9 16.77 51.36C16 51.82 15.17 52.17 14.27 52.42C13.38 52.67 12.45 52.8 11.49 52.8ZM11.49 48.59C12.36 48.59 13.17 48.43 13.93 48.1C14.69 47.77 15.36 47.33 15.93 46.75C16.5 46.18 16.96 45.51 17.29 44.74C17.62 43.98 17.79 43.17 17.79 42.3L17.79 40.2L5.19 40.2L5.19 42.3C5.19 43.17 5.35 43.98 5.67 44.74C6 45.51 6.45 46.18 7.02 46.75C7.6 47.33 8.26 47.77 9.03 48.1C9.8 48.43 10.62 48.59 11.49 48.59Z" />
</svg>
